<svg xmlns="http://www.w3.org/2000/svg" viewBox="0 0 630 630">
  <defs>
    <linearGradient id="g1" x1="50%" y1="0%" x2="50%" y2="100%">
      <stop stop-color="#EBBB14" offset="0%"/>
      <stop stop-color="#B25400" offset="100%"/>
    </linearGradient>
    <linearGradient id="g2" x1="50%" y1="0%" x2="50%" y2="100%">
      <stop stop-color="#F9E583" offset="0%"/>
      <stop stop-color="#DE9800" offset="100%"/>
    </linearGradient>
    <linearGradient id="g3" x1="50%" y1="0%" x2="50%" y2="100%">
      <stop stop-color="#F9E68B" offset="0%"/>
      <stop stop-color="#F3CD32" offset="100%"/>
    </linearGradient>
  </defs>
  <g transform="translate(77.5,0)">
    <rect fill="url(#g1)" x="256" y="0" width="219" height="630" rx="26"/>
    <path fill="url(#g2)" d="M346,604 v26 H320 H153 c-14.36,0 -26,-11.64 -26,-26 V183 c0,-14.36 11.64,-26 26,-26 H320 c14.36,0 26,11.64 26,26 V604z"/>
    <path fill="url(#g3)" d="M219,604 v26 H193 H26 c-14.36,0 -26,-11.64 -26,-26 V341 c0,-14.36 11.64,-26 26,-26 H193 c14.36,0 26,11.64 26,26 V604z"/>
  </g>
</svg>